<?xml version="1.0" encoding="utf-8" standalone="no"?>
<!DOCTYPE svg PUBLIC "-//W3C//DTD SVG 1.1//EN"
  "http://www.w3.org/Graphics/SVG/1.1/DTD/svg11.dtd">
<svg xmlns:xlink="http://www.w3.org/1999/xlink" width="432pt" height="432pt" viewBox="0 0 432 432" xmlns="http://www.w3.org/2000/svg" version="1.1">
 <metadata>
  <rdf:RDF xmlns:dc="http://purl.org/dc/elements/1.1/" xmlns:cc="http://creativecommons.org/ns#" xmlns:rdf="http://www.w3.org/1999/02/22-rdf-syntax-ns#">
   <cc:Work>
    <dc:type rdf:resource="http://purl.org/dc/dcmitype/StillImage"/>
    <dc:date>2025-02-11T19:28:00.751623</dc:date>
    <dc:format>image/svg+xml</dc:format>
    <dc:creator>
     <cc:Agent>
      <dc:title>Matplotlib v3.8.0, https://matplotlib.org/</dc:title>
     </cc:Agent>
    </dc:creator>
   </cc:Work>
  </rdf:RDF>
 </metadata>
 <defs>
  <style type="text/css">*{stroke-linejoin: round; stroke-linecap: butt}</style>
 </defs>
 <g id="figure_1">
  <g id="patch_1">
   <path d="M 0 432 
L 432 432 
L 432 0 
L 0 0 
z
" style="fill: #ffffff"/>
  </g>
  <g id="axes_1">
   <g id="patch_2">
    <path d="M 54 384.48 
L 388.8 384.48 
L 388.8 51.84 
L 54 51.84 
z
" style="fill: #ffffff"/>
   </g>
   <g id="matplotlib.axis_1">
    <g id="xtick_1">
     <g id="line2d_1">
      <defs>
       <path id="mf9c816a9ce" d="M 0 0 
L 0 3.5 
" style="stroke: #000000; stroke-width: 0.8"/>
      </defs>
      <g>
       <use xlink:href="#mf9c816a9ce" x="54" y="384.48" style="stroke: #000000; stroke-width: 0.8"/>
      </g>
     </g>
     <g id="text_1">
      <!-- 250 -->
      <g transform="translate(44.45625 399.078438) scale(0.1 -0.1)">
       <defs>
        <path id="DejaVuSans-32" d="M 1228 531 
L 3431 531 
L 3431 0 
L 469 0 
L 469 531 
Q 828 903 1448 1529 
Q 2069 2156 2228 2338 
Q 2531 2678 2651 2914 
Q 2772 3150 2772 3378 
Q 2772 3750 2511 3984 
Q 2250 4219 1831 4219 
Q 1534 4219 1204 4116 
Q 875 4013 500 3803 
L 500 4441 
Q 881 4594 1212 4672 
Q 1544 4750 1819 4750 
Q 2544 4750 2975 4387 
Q 3406 4025 3406 3419 
Q 3406 3131 3298 2873 
Q 3191 2616 2906 2266 
Q 2828 2175 2409 1742 
Q 1991 1309 1228 531 
z
" transform="scale(0.015625)"/>
        <path id="DejaVuSans-35" d="M 691 4666 
L 3169 4666 
L 3169 4134 
L 1269 4134 
L 1269 2991 
Q 1406 3038 1543 3061 
Q 1681 3084 1819 3084 
Q 2600 3084 3056 2656 
Q 3513 2228 3513 1497 
Q 3513 744 3044 326 
Q 2575 -91 1722 -91 
Q 1428 -91 1123 -41 
Q 819 9 494 109 
L 494 744 
Q 775 591 1075 516 
Q 1375 441 1709 441 
Q 2250 441 2565 725 
Q 2881 1009 2881 1497 
Q 2881 1984 2565 2268 
Q 2250 2553 1709 2553 
Q 1456 2553 1204 2497 
Q 953 2441 691 2322 
L 691 4666 
z
" transform="scale(0.015625)"/>
        <path id="DejaVuSans-30" d="M 2034 4250 
Q 1547 4250 1301 3770 
Q 1056 3291 1056 2328 
Q 1056 1369 1301 889 
Q 1547 409 2034 409 
Q 2525 409 2770 889 
Q 3016 1369 3016 2328 
Q 3016 3291 2770 3770 
Q 2525 4250 2034 4250 
z
M 2034 4750 
Q 2819 4750 3233 4129 
Q 3647 3509 3647 2328 
Q 3647 1150 3233 529 
Q 2819 -91 2034 -91 
Q 1250 -91 836 529 
Q 422 1150 422 2328 
Q 422 3509 836 4129 
Q 1250 4750 2034 4750 
z
" transform="scale(0.015625)"/>
       </defs>
       <use xlink:href="#DejaVuSans-32"/>
       <use xlink:href="#DejaVuSans-35" x="63.623047"/>
       <use xlink:href="#DejaVuSans-30" x="127.246094"/>
      </g>
     </g>
    </g>
    <g id="xtick_2">
     <g id="line2d_2">
      <g>
       <use xlink:href="#mf9c816a9ce" x="109.8" y="384.48" style="stroke: #000000; stroke-width: 0.8"/>
      </g>
     </g>
     <g id="text_2">
      <!-- 255 -->
      <g transform="translate(100.25625 399.078438) scale(0.1 -0.1)">
       <use xlink:href="#DejaVuSans-32"/>
       <use xlink:href="#DejaVuSans-35" x="63.623047"/>
       <use xlink:href="#DejaVuSans-35" x="127.246094"/>
      </g>
     </g>
    </g>
    <g id="xtick_3">
     <g id="line2d_3">
      <g>
       <use xlink:href="#mf9c816a9ce" x="165.6" y="384.48" style="stroke: #000000; stroke-width: 0.8"/>
      </g>
     </g>
     <g id="text_3">
      <!-- 260 -->
      <g transform="translate(156.05625 399.078438) scale(0.1 -0.1)">
       <defs>
        <path id="DejaVuSans-36" d="M 2113 2584 
Q 1688 2584 1439 2293 
Q 1191 2003 1191 1497 
Q 1191 994 1439 701 
Q 1688 409 2113 409 
Q 2538 409 2786 701 
Q 3034 994 3034 1497 
Q 3034 2003 2786 2293 
Q 2538 2584 2113 2584 
z
M 3366 4563 
L 3366 3988 
Q 3128 4100 2886 4159 
Q 2644 4219 2406 4219 
Q 1781 4219 1451 3797 
Q 1122 3375 1075 2522 
Q 1259 2794 1537 2939 
Q 1816 3084 2150 3084 
Q 2853 3084 3261 2657 
Q 3669 2231 3669 1497 
Q 3669 778 3244 343 
Q 2819 -91 2113 -91 
Q 1303 -91 875 529 
Q 447 1150 447 2328 
Q 447 3434 972 4092 
Q 1497 4750 2381 4750 
Q 2619 4750 2861 4703 
Q 3103 4656 3366 4563 
z
" transform="scale(0.015625)"/>
       </defs>
       <use xlink:href="#DejaVuSans-32"/>
       <use xlink:href="#DejaVuSans-36" x="63.623047"/>
       <use xlink:href="#DejaVuSans-30" x="127.246094"/>
      </g>
     </g>
    </g>
    <g id="xtick_4">
     <g id="line2d_4">
      <g>
       <use xlink:href="#mf9c816a9ce" x="221.4" y="384.48" style="stroke: #000000; stroke-width: 0.8"/>
      </g>
     </g>
     <g id="text_4">
      <!-- 265 -->
      <g transform="translate(211.85625 399.078438) scale(0.1 -0.1)">
       <use xlink:href="#DejaVuSans-32"/>
       <use xlink:href="#DejaVuSans-36" x="63.623047"/>
       <use xlink:href="#DejaVuSans-35" x="127.246094"/>
      </g>
     </g>
    </g>
    <g id="xtick_5">
     <g id="line2d_5">
      <g>
       <use xlink:href="#mf9c816a9ce" x="277.2" y="384.48" style="stroke: #000000; stroke-width: 0.8"/>
      </g>
     </g>
     <g id="text_5">
      <!-- 270 -->
      <g transform="translate(267.65625 399.078438) scale(0.1 -0.1)">
       <defs>
        <path id="DejaVuSans-37" d="M 525 4666 
L 3525 4666 
L 3525 4397 
L 1831 0 
L 1172 0 
L 2766 4134 
L 525 4134 
L 525 4666 
z
" transform="scale(0.015625)"/>
       </defs>
       <use xlink:href="#DejaVuSans-32"/>
       <use xlink:href="#DejaVuSans-37" x="63.623047"/>
       <use xlink:href="#DejaVuSans-30" x="127.246094"/>
      </g>
     </g>
    </g>
    <g id="xtick_6">
     <g id="line2d_6">
      <g>
       <use xlink:href="#mf9c816a9ce" x="333" y="384.48" style="stroke: #000000; stroke-width: 0.8"/>
      </g>
     </g>
     <g id="text_6">
      <!-- 275 -->
      <g transform="translate(323.45625 399.078438) scale(0.1 -0.1)">
       <use xlink:href="#DejaVuSans-32"/>
       <use xlink:href="#DejaVuSans-37" x="63.623047"/>
       <use xlink:href="#DejaVuSans-35" x="127.246094"/>
      </g>
     </g>
    </g>
    <g id="xtick_7">
     <g id="line2d_7">
      <g>
       <use xlink:href="#mf9c816a9ce" x="388.8" y="384.48" style="stroke: #000000; stroke-width: 0.8"/>
      </g>
     </g>
     <g id="text_7">
      <!-- 280 -->
      <g transform="translate(379.25625 399.078438) scale(0.1 -0.1)">
       <defs>
        <path id="DejaVuSans-38" d="M 2034 2216 
Q 1584 2216 1326 1975 
Q 1069 1734 1069 1313 
Q 1069 891 1326 650 
Q 1584 409 2034 409 
Q 2484 409 2743 651 
Q 3003 894 3003 1313 
Q 3003 1734 2745 1975 
Q 2488 2216 2034 2216 
z
M 1403 2484 
Q 997 2584 770 2862 
Q 544 3141 544 3541 
Q 544 4100 942 4425 
Q 1341 4750 2034 4750 
Q 2731 4750 3128 4425 
Q 3525 4100 3525 3541 
Q 3525 3141 3298 2862 
Q 3072 2584 2669 2484 
Q 3125 2378 3379 2068 
Q 3634 1759 3634 1313 
Q 3634 634 3220 271 
Q 2806 -91 2034 -91 
Q 1263 -91 848 271 
Q 434 634 434 1313 
Q 434 1759 690 2068 
Q 947 2378 1403 2484 
z
M 1172 3481 
Q 1172 3119 1398 2916 
Q 1625 2713 2034 2713 
Q 2441 2713 2670 2916 
Q 2900 3119 2900 3481 
Q 2900 3844 2670 4047 
Q 2441 4250 2034 4250 
Q 1625 4250 1398 4047 
Q 1172 3844 1172 3481 
z
" transform="scale(0.015625)"/>
       </defs>
       <use xlink:href="#DejaVuSans-32"/>
       <use xlink:href="#DejaVuSans-38" x="63.623047"/>
       <use xlink:href="#DejaVuSans-30" x="127.246094"/>
      </g>
     </g>
    </g>
    <g id="text_8">
     <!-- PCA components -->
     <g transform="translate(178.992969 412.756563) scale(0.1 -0.1)">
      <defs>
       <path id="DejaVuSans-50" d="M 1259 4147 
L 1259 2394 
L 2053 2394 
Q 2494 2394 2734 2622 
Q 2975 2850 2975 3272 
Q 2975 3691 2734 3919 
Q 2494 4147 2053 4147 
L 1259 4147 
z
M 628 4666 
L 2053 4666 
Q 2838 4666 3239 4311 
Q 3641 3956 3641 3272 
Q 3641 2581 3239 2228 
Q 2838 1875 2053 1875 
L 1259 1875 
L 1259 0 
L 628 0 
L 628 4666 
z
" transform="scale(0.015625)"/>
       <path id="DejaVuSans-43" d="M 4122 4306 
L 4122 3641 
Q 3803 3938 3442 4084 
Q 3081 4231 2675 4231 
Q 1875 4231 1450 3742 
Q 1025 3253 1025 2328 
Q 1025 1406 1450 917 
Q 1875 428 2675 428 
Q 3081 428 3442 575 
Q 3803 722 4122 1019 
L 4122 359 
Q 3791 134 3420 21 
Q 3050 -91 2638 -91 
Q 1578 -91 968 557 
Q 359 1206 359 2328 
Q 359 3453 968 4101 
Q 1578 4750 2638 4750 
Q 3056 4750 3426 4639 
Q 3797 4528 4122 4306 
z
" transform="scale(0.015625)"/>
       <path id="DejaVuSans-41" d="M 2188 4044 
L 1331 1722 
L 3047 1722 
L 2188 4044 
z
M 1831 4666 
L 2547 4666 
L 4325 0 
L 3669 0 
L 3244 1197 
L 1141 1197 
L 716 0 
L 50 0 
L 1831 4666 
z
" transform="scale(0.015625)"/>
       <path id="DejaVuSans-20" transform="scale(0.015625)"/>
       <path id="DejaVuSans-63" d="M 3122 3366 
L 3122 2828 
Q 2878 2963 2633 3030 
Q 2388 3097 2138 3097 
Q 1578 3097 1268 2742 
Q 959 2388 959 1747 
Q 959 1106 1268 751 
Q 1578 397 2138 397 
Q 2388 397 2633 464 
Q 2878 531 3122 666 
L 3122 134 
Q 2881 22 2623 -34 
Q 2366 -91 2075 -91 
Q 1284 -91 818 406 
Q 353 903 353 1747 
Q 353 2603 823 3093 
Q 1294 3584 2113 3584 
Q 2378 3584 2631 3529 
Q 2884 3475 3122 3366 
z
" transform="scale(0.015625)"/>
       <path id="DejaVuSans-6f" d="M 1959 3097 
Q 1497 3097 1228 2736 
Q 959 2375 959 1747 
Q 959 1119 1226 758 
Q 1494 397 1959 397 
Q 2419 397 2687 759 
Q 2956 1122 2956 1747 
Q 2956 2369 2687 2733 
Q 2419 3097 1959 3097 
z
M 1959 3584 
Q 2709 3584 3137 3096 
Q 3566 2609 3566 1747 
Q 3566 888 3137 398 
Q 2709 -91 1959 -91 
Q 1206 -91 779 398 
Q 353 888 353 1747 
Q 353 2609 779 3096 
Q 1206 3584 1959 3584 
z
" transform="scale(0.015625)"/>
       <path id="DejaVuSans-6d" d="M 3328 2828 
Q 3544 3216 3844 3400 
Q 4144 3584 4550 3584 
Q 5097 3584 5394 3201 
Q 5691 2819 5691 2113 
L 5691 0 
L 5113 0 
L 5113 2094 
Q 5113 2597 4934 2840 
Q 4756 3084 4391 3084 
Q 3944 3084 3684 2787 
Q 3425 2491 3425 1978 
L 3425 0 
L 2847 0 
L 2847 2094 
Q 2847 2600 2669 2842 
Q 2491 3084 2119 3084 
Q 1678 3084 1418 2786 
Q 1159 2488 1159 1978 
L 1159 0 
L 581 0 
L 581 3500 
L 1159 3500 
L 1159 2956 
Q 1356 3278 1631 3431 
Q 1906 3584 2284 3584 
Q 2666 3584 2933 3390 
Q 3200 3197 3328 2828 
z
" transform="scale(0.015625)"/>
       <path id="DejaVuSans-70" d="M 1159 525 
L 1159 -1331 
L 581 -1331 
L 581 3500 
L 1159 3500 
L 1159 2969 
Q 1341 3281 1617 3432 
Q 1894 3584 2278 3584 
Q 2916 3584 3314 3078 
Q 3713 2572 3713 1747 
Q 3713 922 3314 415 
Q 2916 -91 2278 -91 
Q 1894 -91 1617 61 
Q 1341 213 1159 525 
z
M 3116 1747 
Q 3116 2381 2855 2742 
Q 2594 3103 2138 3103 
Q 1681 3103 1420 2742 
Q 1159 2381 1159 1747 
Q 1159 1113 1420 752 
Q 1681 391 2138 391 
Q 2594 391 2855 752 
Q 3116 1113 3116 1747 
z
" transform="scale(0.015625)"/>
       <path id="DejaVuSans-6e" d="M 3513 2113 
L 3513 0 
L 2938 0 
L 2938 2094 
Q 2938 2591 2744 2837 
Q 2550 3084 2163 3084 
Q 1697 3084 1428 2787 
Q 1159 2491 1159 1978 
L 1159 0 
L 581 0 
L 581 3500 
L 1159 3500 
L 1159 2956 
Q 1366 3272 1645 3428 
Q 1925 3584 2291 3584 
Q 2894 3584 3203 3211 
Q 3513 2838 3513 2113 
z
" transform="scale(0.015625)"/>
       <path id="DejaVuSans-65" d="M 3597 1894 
L 3597 1613 
L 953 1613 
Q 991 1019 1311 708 
Q 1631 397 2203 397 
Q 2534 397 2845 478 
Q 3156 559 3463 722 
L 3463 178 
Q 3153 47 2828 -22 
Q 2503 -91 2169 -91 
Q 1331 -91 842 396 
Q 353 884 353 1716 
Q 353 2575 817 3079 
Q 1281 3584 2069 3584 
Q 2775 3584 3186 3129 
Q 3597 2675 3597 1894 
z
M 3022 2063 
Q 3016 2534 2758 2815 
Q 2500 3097 2075 3097 
Q 1594 3097 1305 2825 
Q 1016 2553 972 2059 
L 3022 2063 
z
" transform="scale(0.015625)"/>
       <path id="DejaVuSans-74" d="M 1172 4494 
L 1172 3500 
L 2356 3500 
L 2356 3053 
L 1172 3053 
L 1172 1153 
Q 1172 725 1289 603 
Q 1406 481 1766 481 
L 2356 481 
L 2356 0 
L 1766 0 
Q 1100 0 847 248 
Q 594 497 594 1153 
L 594 3053 
L 172 3053 
L 172 3500 
L 594 3500 
L 594 4494 
L 1172 4494 
z
" transform="scale(0.015625)"/>
       <path id="DejaVuSans-73" d="M 2834 3397 
L 2834 2853 
Q 2591 2978 2328 3040 
Q 2066 3103 1784 3103 
Q 1356 3103 1142 2972 
Q 928 2841 928 2578 
Q 928 2378 1081 2264 
Q 1234 2150 1697 2047 
L 1894 2003 
Q 2506 1872 2764 1633 
Q 3022 1394 3022 966 
Q 3022 478 2636 193 
Q 2250 -91 1575 -91 
Q 1294 -91 989 -36 
Q 684 19 347 128 
L 347 722 
Q 666 556 975 473 
Q 1284 391 1588 391 
Q 1994 391 2212 530 
Q 2431 669 2431 922 
Q 2431 1156 2273 1281 
Q 2116 1406 1581 1522 
L 1381 1569 
Q 847 1681 609 1914 
Q 372 2147 372 2553 
Q 372 3047 722 3315 
Q 1072 3584 1716 3584 
Q 2034 3584 2315 3537 
Q 2597 3491 2834 3397 
z
" transform="scale(0.015625)"/>
      </defs>
      <use xlink:href="#DejaVuSans-50"/>
      <use xlink:href="#DejaVuSans-43" x="60.302734"/>
      <use xlink:href="#DejaVuSans-41" x="130.126953"/>
      <use xlink:href="#DejaVuSans-20" x="198.535156"/>
      <use xlink:href="#DejaVuSans-63" x="230.322266"/>
      <use xlink:href="#DejaVuSans-6f" x="285.302734"/>
      <use xlink:href="#DejaVuSans-6d" x="346.484375"/>
      <use xlink:href="#DejaVuSans-70" x="443.896484"/>
      <use xlink:href="#DejaVuSans-6f" x="507.373047"/>
      <use xlink:href="#DejaVuSans-6e" x="568.554688"/>
      <use xlink:href="#DejaVuSans-65" x="631.933594"/>
      <use xlink:href="#DejaVuSans-6e" x="693.457031"/>
      <use xlink:href="#DejaVuSans-74" x="756.835938"/>
      <use xlink:href="#DejaVuSans-73" x="796.044922"/>
     </g>
    </g>
   </g>
   <g id="matplotlib.axis_2">
    <g id="ytick_1">
     <g id="line2d_8">
      <defs>
       <path id="m98bf5fcdbd" d="M 0 0 
L -3.5 0 
" style="stroke: #000000; stroke-width: 0.8"/>
      </defs>
      <g>
       <use xlink:href="#m98bf5fcdbd" x="54" y="384.48" style="stroke: #000000; stroke-width: 0.8"/>
      </g>
     </g>
     <g id="text_9">
      <!-- 0.8900 -->
      <g transform="translate(12.009375 388.279219) scale(0.1 -0.1)">
       <defs>
        <path id="DejaVuSans-2e" d="M 684 794 
L 1344 794 
L 1344 0 
L 684 0 
L 684 794 
z
" transform="scale(0.015625)"/>
        <path id="DejaVuSans-39" d="M 703 97 
L 703 672 
Q 941 559 1184 500 
Q 1428 441 1663 441 
Q 2288 441 2617 861 
Q 2947 1281 2994 2138 
Q 2813 1869 2534 1725 
Q 2256 1581 1919 1581 
Q 1219 1581 811 2004 
Q 403 2428 403 3163 
Q 403 3881 828 4315 
Q 1253 4750 1959 4750 
Q 2769 4750 3195 4129 
Q 3622 3509 3622 2328 
Q 3622 1225 3098 567 
Q 2575 -91 1691 -91 
Q 1453 -91 1209 -44 
Q 966 3 703 97 
z
M 1959 2075 
Q 2384 2075 2632 2365 
Q 2881 2656 2881 3163 
Q 2881 3666 2632 3958 
Q 2384 4250 1959 4250 
Q 1534 4250 1286 3958 
Q 1038 3666 1038 3163 
Q 1038 2656 1286 2365 
Q 1534 2075 1959 2075 
z
" transform="scale(0.015625)"/>
       </defs>
       <use xlink:href="#DejaVuSans-30"/>
       <use xlink:href="#DejaVuSans-2e" x="63.623047"/>
       <use xlink:href="#DejaVuSans-38" x="95.410156"/>
       <use xlink:href="#DejaVuSans-39" x="159.033203"/>
       <use xlink:href="#DejaVuSans-30" x="222.65625"/>
       <use xlink:href="#DejaVuSans-30" x="286.279297"/>
      </g>
     </g>
    </g>
    <g id="ytick_2">
     <g id="line2d_9">
      <g>
       <use xlink:href="#m98bf5fcdbd" x="54" y="342.9" style="stroke: #000000; stroke-width: 0.8"/>
      </g>
     </g>
     <g id="text_10">
      <!-- 0.8925 -->
      <g transform="translate(12.009375 346.699219) scale(0.1 -0.1)">
       <use xlink:href="#DejaVuSans-30"/>
       <use xlink:href="#DejaVuSans-2e" x="63.623047"/>
       <use xlink:href="#DejaVuSans-38" x="95.410156"/>
       <use xlink:href="#DejaVuSans-39" x="159.033203"/>
       <use xlink:href="#DejaVuSans-32" x="222.65625"/>
       <use xlink:href="#DejaVuSans-35" x="286.279297"/>
      </g>
     </g>
    </g>
    <g id="ytick_3">
     <g id="line2d_10">
      <g>
       <use xlink:href="#m98bf5fcdbd" x="54" y="301.32" style="stroke: #000000; stroke-width: 0.8"/>
      </g>
     </g>
     <g id="text_11">
      <!-- 0.8950 -->
      <g transform="translate(12.009375 305.119219) scale(0.1 -0.1)">
       <use xlink:href="#DejaVuSans-30"/>
       <use xlink:href="#DejaVuSans-2e" x="63.623047"/>
       <use xlink:href="#DejaVuSans-38" x="95.410156"/>
       <use xlink:href="#DejaVuSans-39" x="159.033203"/>
       <use xlink:href="#DejaVuSans-35" x="222.65625"/>
       <use xlink:href="#DejaVuSans-30" x="286.279297"/>
      </g>
     </g>
    </g>
    <g id="ytick_4">
     <g id="line2d_11">
      <g>
       <use xlink:href="#m98bf5fcdbd" x="54" y="259.74" style="stroke: #000000; stroke-width: 0.8"/>
      </g>
     </g>
     <g id="text_12">
      <!-- 0.8975 -->
      <g transform="translate(12.009375 263.539219) scale(0.1 -0.1)">
       <use xlink:href="#DejaVuSans-30"/>
       <use xlink:href="#DejaVuSans-2e" x="63.623047"/>
       <use xlink:href="#DejaVuSans-38" x="95.410156"/>
       <use xlink:href="#DejaVuSans-39" x="159.033203"/>
       <use xlink:href="#DejaVuSans-37" x="222.65625"/>
       <use xlink:href="#DejaVuSans-35" x="286.279297"/>
      </g>
     </g>
    </g>
    <g id="ytick_5">
     <g id="line2d_12">
      <g>
       <use xlink:href="#m98bf5fcdbd" x="54" y="218.16" style="stroke: #000000; stroke-width: 0.8"/>
      </g>
     </g>
     <g id="text_13">
      <!-- 0.9000 -->
      <g transform="translate(12.009375 221.959219) scale(0.1 -0.1)">
       <use xlink:href="#DejaVuSans-30"/>
       <use xlink:href="#DejaVuSans-2e" x="63.623047"/>
       <use xlink:href="#DejaVuSans-39" x="95.410156"/>
       <use xlink:href="#DejaVuSans-30" x="159.033203"/>
       <use xlink:href="#DejaVuSans-30" x="222.65625"/>
       <use xlink:href="#DejaVuSans-30" x="286.279297"/>
      </g>
     </g>
    </g>
    <g id="ytick_6">
     <g id="line2d_13">
      <g>
       <use xlink:href="#m98bf5fcdbd" x="54" y="176.58" style="stroke: #000000; stroke-width: 0.8"/>
      </g>
     </g>
     <g id="text_14">
      <!-- 0.9025 -->
      <g transform="translate(12.009375 180.379219) scale(0.1 -0.1)">
       <use xlink:href="#DejaVuSans-30"/>
       <use xlink:href="#DejaVuSans-2e" x="63.623047"/>
       <use xlink:href="#DejaVuSans-39" x="95.410156"/>
       <use xlink:href="#DejaVuSans-30" x="159.033203"/>
       <use xlink:href="#DejaVuSans-32" x="222.65625"/>
       <use xlink:href="#DejaVuSans-35" x="286.279297"/>
      </g>
     </g>
    </g>
    <g id="ytick_7">
     <g id="line2d_14">
      <g>
       <use xlink:href="#m98bf5fcdbd" x="54" y="135" style="stroke: #000000; stroke-width: 0.8"/>
      </g>
     </g>
     <g id="text_15">
      <!-- 0.9050 -->
      <g transform="translate(12.009375 138.799219) scale(0.1 -0.1)">
       <use xlink:href="#DejaVuSans-30"/>
       <use xlink:href="#DejaVuSans-2e" x="63.623047"/>
       <use xlink:href="#DejaVuSans-39" x="95.410156"/>
       <use xlink:href="#DejaVuSans-30" x="159.033203"/>
       <use xlink:href="#DejaVuSans-35" x="222.65625"/>
       <use xlink:href="#DejaVuSans-30" x="286.279297"/>
      </g>
     </g>
    </g>
    <g id="ytick_8">
     <g id="line2d_15">
      <g>
       <use xlink:href="#m98bf5fcdbd" x="54" y="93.42" style="stroke: #000000; stroke-width: 0.8"/>
      </g>
     </g>
     <g id="text_16">
      <!-- 0.9075 -->
      <g transform="translate(12.009375 97.219219) scale(0.1 -0.1)">
       <use xlink:href="#DejaVuSans-30"/>
       <use xlink:href="#DejaVuSans-2e" x="63.623047"/>
       <use xlink:href="#DejaVuSans-39" x="95.410156"/>
       <use xlink:href="#DejaVuSans-30" x="159.033203"/>
       <use xlink:href="#DejaVuSans-37" x="222.65625"/>
       <use xlink:href="#DejaVuSans-35" x="286.279297"/>
      </g>
     </g>
    </g>
    <g id="ytick_9">
     <g id="line2d_16">
      <g>
       <use xlink:href="#m98bf5fcdbd" x="54" y="51.84" style="stroke: #000000; stroke-width: 0.8"/>
      </g>
     </g>
     <g id="text_17">
      <!-- 0.9100 -->
      <g transform="translate(12.009375 55.639219) scale(0.1 -0.1)">
       <defs>
        <path id="DejaVuSans-31" d="M 794 531 
L 1825 531 
L 1825 4091 
L 703 3866 
L 703 4441 
L 1819 4666 
L 2450 4666 
L 2450 531 
L 3481 531 
L 3481 0 
L 794 0 
L 794 531 
z
" transform="scale(0.015625)"/>
       </defs>
       <use xlink:href="#DejaVuSans-30"/>
       <use xlink:href="#DejaVuSans-2e" x="63.623047"/>
       <use xlink:href="#DejaVuSans-39" x="95.410156"/>
       <use xlink:href="#DejaVuSans-31" x="159.033203"/>
       <use xlink:href="#DejaVuSans-30" x="222.65625"/>
       <use xlink:href="#DejaVuSans-30" x="286.279297"/>
      </g>
     </g>
    </g>
    <g id="text_18">
     <!-- CEV -->
     <g transform="translate(5.929687 228.231094) rotate(-90) scale(0.1 -0.1)">
      <defs>
       <path id="DejaVuSans-45" d="M 628 4666 
L 3578 4666 
L 3578 4134 
L 1259 4134 
L 1259 2753 
L 3481 2753 
L 3481 2222 
L 1259 2222 
L 1259 531 
L 3634 531 
L 3634 0 
L 628 0 
L 628 4666 
z
" transform="scale(0.015625)"/>
       <path id="DejaVuSans-56" d="M 1831 0 
L 50 4666 
L 709 4666 
L 2188 738 
L 3669 4666 
L 4325 4666 
L 2547 0 
L 1831 0 
z
" transform="scale(0.015625)"/>
      </defs>
      <use xlink:href="#DejaVuSans-43"/>
      <use xlink:href="#DejaVuSans-45" x="69.824219"/>
      <use xlink:href="#DejaVuSans-56" x="133.007812"/>
     </g>
    </g>
   </g>
   <g id="line2d_17">
    <path d="M 42.84 406.402112 
L 54 397.815978 
L 65.16 389.269058 
L 76.32 380.769638 
L 87.48 372.295952 
L 98.64 363.912492 
L 109.8 355.55111 
L 120.96 347.237176 
L 132.12 338.97978 
L 143.28 330.775998 
L 154.44 322.595382 
L 165.6 314.503716 
L 176.76 306.448963 
L 187.92 298.460213 
L 199.08 290.532179 
L 210.24 282.67981 
L 221.4 274.855721 
L 232.56 267.086022 
L 243.72 259.332638 
L 254.88 251.599858 
L 266.04 243.918823 
L 277.2 236.308481 
L 288.36 228.734713 
L 299.52 221.175198 
L 310.68 213.700296 
L 321.84 206.238379 
L 333 198.827357 
L 344.16 191.470945 
L 355.32 184.131261 
L 366.48 176.821368 
L 377.64 169.532693 
L 388.8 162.297575 
L 399.96 155.108712 
" clip-path="url(#pc6d35befc0)" style="fill: none; stroke: #ff0000; stroke-width: 1.5; stroke-linecap: square"/>
    <defs>
     <path id="mfb8dd3f33d" d="M 0 0.5 
C 0.132602 0.5 0.25979 0.447317 0.353553 0.353553 
C 0.447317 0.25979 0.5 0.132602 0.5 0 
C 0.5 -0.132602 0.447317 -0.25979 0.353553 -0.353553 
C 0.25979 -0.447317 0.132602 -0.5 0 -0.5 
C -0.132602 -0.5 -0.25979 -0.447317 -0.353553 -0.353553 
C -0.447317 -0.25979 -0.5 -0.132602 -0.5 0 
C -0.5 0.132602 -0.447317 0.25979 -0.353553 0.353553 
C -0.25979 0.447317 -0.132602 0.5 0 0.5 
z
" style="stroke: #ff0000"/>
    </defs>
    <g clip-path="url(#pc6d35befc0)">
     <use xlink:href="#mfb8dd3f33d" x="42.84" y="406.402112" style="fill: #ff0000; stroke: #ff0000"/>
     <use xlink:href="#mfb8dd3f33d" x="54" y="397.815978" style="fill: #ff0000; stroke: #ff0000"/>
     <use xlink:href="#mfb8dd3f33d" x="65.16" y="389.269058" style="fill: #ff0000; stroke: #ff0000"/>
     <use xlink:href="#mfb8dd3f33d" x="76.32" y="380.769638" style="fill: #ff0000; stroke: #ff0000"/>
     <use xlink:href="#mfb8dd3f33d" x="87.48" y="372.295952" style="fill: #ff0000; stroke: #ff0000"/>
     <use xlink:href="#mfb8dd3f33d" x="98.64" y="363.912492" style="fill: #ff0000; stroke: #ff0000"/>
     <use xlink:href="#mfb8dd3f33d" x="109.8" y="355.55111" style="fill: #ff0000; stroke: #ff0000"/>
     <use xlink:href="#mfb8dd3f33d" x="120.96" y="347.237176" style="fill: #ff0000; stroke: #ff0000"/>
     <use xlink:href="#mfb8dd3f33d" x="132.12" y="338.97978" style="fill: #ff0000; stroke: #ff0000"/>
     <use xlink:href="#mfb8dd3f33d" x="143.28" y="330.775998" style="fill: #ff0000; stroke: #ff0000"/>
     <use xlink:href="#mfb8dd3f33d" x="154.44" y="322.595382" style="fill: #ff0000; stroke: #ff0000"/>
     <use xlink:href="#mfb8dd3f33d" x="165.6" y="314.503716" style="fill: #ff0000; stroke: #ff0000"/>
     <use xlink:href="#mfb8dd3f33d" x="176.76" y="306.448963" style="fill: #ff0000; stroke: #ff0000"/>
     <use xlink:href="#mfb8dd3f33d" x="187.92" y="298.460213" style="fill: #ff0000; stroke: #ff0000"/>
     <use xlink:href="#mfb8dd3f33d" x="199.08" y="290.532179" style="fill: #ff0000; stroke: #ff0000"/>
     <use xlink:href="#mfb8dd3f33d" x="210.24" y="282.67981" style="fill: #ff0000; stroke: #ff0000"/>
     <use xlink:href="#mfb8dd3f33d" x="221.4" y="274.855721" style="fill: #ff0000; stroke: #ff0000"/>
     <use xlink:href="#mfb8dd3f33d" x="232.56" y="267.086022" style="fill: #ff0000; stroke: #ff0000"/>
     <use xlink:href="#mfb8dd3f33d" x="243.72" y="259.332638" style="fill: #ff0000; stroke: #ff0000"/>
     <use xlink:href="#mfb8dd3f33d" x="254.88" y="251.599858" style="fill: #ff0000; stroke: #ff0000"/>
     <use xlink:href="#mfb8dd3f33d" x="266.04" y="243.918823" style="fill: #ff0000; stroke: #ff0000"/>
     <use xlink:href="#mfb8dd3f33d" x="277.2" y="236.308481" style="fill: #ff0000; stroke: #ff0000"/>
     <use xlink:href="#mfb8dd3f33d" x="288.36" y="228.734713" style="fill: #ff0000; stroke: #ff0000"/>
     <use xlink:href="#mfb8dd3f33d" x="299.52" y="221.175198" style="fill: #ff0000; stroke: #ff0000"/>
     <use xlink:href="#mfb8dd3f33d" x="310.68" y="213.700296" style="fill: #ff0000; stroke: #ff0000"/>
     <use xlink:href="#mfb8dd3f33d" x="321.84" y="206.238379" style="fill: #ff0000; stroke: #ff0000"/>
     <use xlink:href="#mfb8dd3f33d" x="333" y="198.827357" style="fill: #ff0000; stroke: #ff0000"/>
     <use xlink:href="#mfb8dd3f33d" x="344.16" y="191.470945" style="fill: #ff0000; stroke: #ff0000"/>
     <use xlink:href="#mfb8dd3f33d" x="355.32" y="184.131261" style="fill: #ff0000; stroke: #ff0000"/>
     <use xlink:href="#mfb8dd3f33d" x="366.48" y="176.821368" style="fill: #ff0000; stroke: #ff0000"/>
     <use xlink:href="#mfb8dd3f33d" x="377.64" y="169.532693" style="fill: #ff0000; stroke: #ff0000"/>
     <use xlink:href="#mfb8dd3f33d" x="388.8" y="162.297575" style="fill: #ff0000; stroke: #ff0000"/>
     <use xlink:href="#mfb8dd3f33d" x="399.96" y="155.108712" style="fill: #ff0000; stroke: #ff0000"/>
    </g>
   </g>
   <g id="line2d_18">
    <path d="M 54 218.16 
L 388.8 218.16 
" clip-path="url(#pc6d35befc0)" style="fill: none; stroke-dasharray: 5.55,2.4; stroke-dashoffset: 0; stroke: #000000; stroke-width: 1.5"/>
   </g>
   <g id="line2d_19">
    <path d="M 310.68 384.48 
L 310.68 51.84 
" clip-path="url(#pc6d35befc0)" style="fill: none; stroke-dasharray: 5.55,2.4; stroke-dashoffset: 0; stroke: #ff0000; stroke-width: 1.5"/>
   </g>
   <g id="line2d_20">
    <path d="M 42.84 409.761869 
L 54 401.140169 
L 65.16 392.534093 
L 76.32 384.007171 
L 87.48 375.515049 
L 98.64 367.093605 
L 109.8 358.706954 
L 120.96 350.371654 
L 132.12 342.056183 
L 143.28 333.816329 
L 154.44 325.632692 
L 165.6 317.483461 
L 176.76 309.401402 
L 187.92 301.363132 
L 199.08 293.441462 
L 210.24 285.539175 
L 221.4 277.653879 
L 232.56 269.838523 
L 243.72 262.080281 
L 254.88 254.353061 
L 266.04 246.644121 
L 277.2 238.996612 
L 288.36 231.392943 
L 299.52 223.842139 
L 310.68 216.349114 
L 321.84 208.906012 
L 333 201.483569 
L 344.16 194.092431 
L 355.32 186.747979 
L 366.48 179.462484 
L 377.64 172.208104 
L 388.8 164.973092 
L 399.96 157.751739 
" clip-path="url(#pc6d35befc0)" style="fill: none; stroke: #008000; stroke-width: 1.5; stroke-linecap: square"/>
    <defs>
     <path id="mda6793c3dc" d="M 0 0.5 
C 0.132602 0.5 0.25979 0.447317 0.353553 0.353553 
C 0.447317 0.25979 0.5 0.132602 0.5 0 
C 0.5 -0.132602 0.447317 -0.25979 0.353553 -0.353553 
C 0.25979 -0.447317 0.132602 -0.5 0 -0.5 
C -0.132602 -0.5 -0.25979 -0.447317 -0.353553 -0.353553 
C -0.447317 -0.25979 -0.5 -0.132602 -0.5 0 
C -0.5 0.132602 -0.447317 0.25979 -0.353553 0.353553 
C -0.25979 0.447317 -0.132602 0.5 0 0.5 
z
" style="stroke: #008000"/>
    </defs>
    <g clip-path="url(#pc6d35befc0)">
     <use xlink:href="#mda6793c3dc" x="42.84" y="409.761869" style="fill: #008000; stroke: #008000"/>
     <use xlink:href="#mda6793c3dc" x="54" y="401.140169" style="fill: #008000; stroke: #008000"/>
     <use xlink:href="#mda6793c3dc" x="65.16" y="392.534093" style="fill: #008000; stroke: #008000"/>
     <use xlink:href="#mda6793c3dc" x="76.32" y="384.007171" style="fill: #008000; stroke: #008000"/>
     <use xlink:href="#mda6793c3dc" x="87.48" y="375.515049" style="fill: #008000; stroke: #008000"/>
     <use xlink:href="#mda6793c3dc" x="98.64" y="367.093605" style="fill: #008000; stroke: #008000"/>
     <use xlink:href="#mda6793c3dc" x="109.8" y="358.706954" style="fill: #008000; stroke: #008000"/>
     <use xlink:href="#mda6793c3dc" x="120.96" y="350.371654" style="fill: #008000; stroke: #008000"/>
     <use xlink:href="#mda6793c3dc" x="132.12" y="342.056183" style="fill: #008000; stroke: #008000"/>
     <use xlink:href="#mda6793c3dc" x="143.28" y="333.816329" style="fill: #008000; stroke: #008000"/>
     <use xlink:href="#mda6793c3dc" x="154.44" y="325.632692" style="fill: #008000; stroke: #008000"/>
     <use xlink:href="#mda6793c3dc" x="165.6" y="317.483461" style="fill: #008000; stroke: #008000"/>
     <use xlink:href="#mda6793c3dc" x="176.76" y="309.401402" style="fill: #008000; stroke: #008000"/>
     <use xlink:href="#mda6793c3dc" x="187.92" y="301.363132" style="fill: #008000; stroke: #008000"/>
     <use xlink:href="#mda6793c3dc" x="199.08" y="293.441462" style="fill: #008000; stroke: #008000"/>
     <use xlink:href="#mda6793c3dc" x="210.24" y="285.539175" style="fill: #008000; stroke: #008000"/>
     <use xlink:href="#mda6793c3dc" x="221.4" y="277.653879" style="fill: #008000; stroke: #008000"/>
     <use xlink:href="#mda6793c3dc" x="232.56" y="269.838523" style="fill: #008000; stroke: #008000"/>
     <use xlink:href="#mda6793c3dc" x="243.72" y="262.080281" style="fill: #008000; stroke: #008000"/>
     <use xlink:href="#mda6793c3dc" x="254.88" y="254.353061" style="fill: #008000; stroke: #008000"/>
     <use xlink:href="#mda6793c3dc" x="266.04" y="246.644121" style="fill: #008000; stroke: #008000"/>
     <use xlink:href="#mda6793c3dc" x="277.2" y="238.996612" style="fill: #008000; stroke: #008000"/>
     <use xlink:href="#mda6793c3dc" x="288.36" y="231.392943" style="fill: #008000; stroke: #008000"/>
     <use xlink:href="#mda6793c3dc" x="299.52" y="223.842139" style="fill: #008000; stroke: #008000"/>
     <use xlink:href="#mda6793c3dc" x="310.68" y="216.349114" style="fill: #008000; stroke: #008000"/>
     <use xlink:href="#mda6793c3dc" x="321.84" y="208.906012" style="fill: #008000; stroke: #008000"/>
     <use xlink:href="#mda6793c3dc" x="333" y="201.483569" style="fill: #008000; stroke: #008000"/>
     <use xlink:href="#mda6793c3dc" x="344.16" y="194.092431" style="fill: #008000; stroke: #008000"/>
     <use xlink:href="#mda6793c3dc" x="355.32" y="186.747979" style="fill: #008000; stroke: #008000"/>
     <use xlink:href="#mda6793c3dc" x="366.48" y="179.462484" style="fill: #008000; stroke: #008000"/>
     <use xlink:href="#mda6793c3dc" x="377.64" y="172.208104" style="fill: #008000; stroke: #008000"/>
     <use xlink:href="#mda6793c3dc" x="388.8" y="164.973092" style="fill: #008000; stroke: #008000"/>
     <use xlink:href="#mda6793c3dc" x="399.96" y="157.751739" style="fill: #008000; stroke: #008000"/>
    </g>
   </g>
   <g id="line2d_21">
    <path d="M 54 218.16 
L 388.8 218.16 
" clip-path="url(#pc6d35befc0)" style="fill: none; stroke-dasharray: 5.55,2.4; stroke-dashoffset: 0; stroke: #000000; stroke-width: 1.5"/>
   </g>
   <g id="line2d_22">
    <path d="M 310.68 384.48 
L 310.68 51.84 
" clip-path="url(#pc6d35befc0)" style="fill: none; stroke-dasharray: 5.55,2.4; stroke-dashoffset: 0; stroke: #008000; stroke-width: 1.5"/>
   </g>
   <g id="line2d_23">
    <path d="M 42.84 365.323721 
L 54 356.820592 
L 65.16 348.344606 
L 76.32 339.913243 
L 87.48 331.527862 
L 98.64 323.221562 
L 109.8 314.989307 
L 120.96 306.833136 
L 132.12 298.729171 
L 143.28 290.626027 
L 154.44 282.578274 
L 165.6 274.560137 
L 176.76 266.613971 
L 187.92 258.682489 
L 199.08 250.819687 
L 210.24 243.018464 
L 221.4 235.23779 
L 232.56 227.476242 
L 243.72 219.855742 
L 254.88 212.270131 
L 266.04 204.722208 
L 277.2 197.216838 
L 288.36 189.753789 
L 299.52 182.302246 
L 310.68 174.895632 
L 321.84 167.527358 
L 333 160.188957 
L 344.16 152.85527 
L 355.32 145.584382 
L 366.48 138.357714 
L 377.64 131.206513 
L 388.8 124.076533 
L 399.96 116.973422 
" clip-path="url(#pc6d35befc0)" style="fill: none; stroke: #0000ff; stroke-width: 1.5; stroke-linecap: square"/>
    <defs>
     <path id="mfed5297c0e" d="M 0 0.5 
C 0.132602 0.5 0.25979 0.447317 0.353553 0.353553 
C 0.447317 0.25979 0.5 0.132602 0.5 0 
C 0.5 -0.132602 0.447317 -0.25979 0.353553 -0.353553 
C 0.25979 -0.447317 0.132602 -0.5 0 -0.5 
C -0.132602 -0.5 -0.25979 -0.447317 -0.353553 -0.353553 
C -0.447317 -0.25979 -0.5 -0.132602 -0.5 0 
C -0.5 0.132602 -0.447317 0.25979 -0.353553 0.353553 
C -0.25979 0.447317 -0.132602 0.5 0 0.5 
z
" style="stroke: #0000ff"/>
    </defs>
    <g clip-path="url(#pc6d35befc0)">
     <use xlink:href="#mfed5297c0e" x="42.84" y="365.323721" style="fill: #0000ff; stroke: #0000ff"/>
     <use xlink:href="#mfed5297c0e" x="54" y="356.820592" style="fill: #0000ff; stroke: #0000ff"/>
     <use xlink:href="#mfed5297c0e" x="65.16" y="348.344606" style="fill: #0000ff; stroke: #0000ff"/>
     <use xlink:href="#mfed5297c0e" x="76.32" y="339.913243" style="fill: #0000ff; stroke: #0000ff"/>
     <use xlink:href="#mfed5297c0e" x="87.48" y="331.527862" style="fill: #0000ff; stroke: #0000ff"/>
     <use xlink:href="#mfed5297c0e" x="98.64" y="323.221562" style="fill: #0000ff; stroke: #0000ff"/>
     <use xlink:href="#mfed5297c0e" x="109.8" y="314.989307" style="fill: #0000ff; stroke: #0000ff"/>
     <use xlink:href="#mfed5297c0e" x="120.96" y="306.833136" style="fill: #0000ff; stroke: #0000ff"/>
     <use xlink:href="#mfed5297c0e" x="132.12" y="298.729171" style="fill: #0000ff; stroke: #0000ff"/>
     <use xlink:href="#mfed5297c0e" x="143.28" y="290.626027" style="fill: #0000ff; stroke: #0000ff"/>
     <use xlink:href="#mfed5297c0e" x="154.44" y="282.578274" style="fill: #0000ff; stroke: #0000ff"/>
     <use xlink:href="#mfed5297c0e" x="165.6" y="274.560137" style="fill: #0000ff; stroke: #0000ff"/>
     <use xlink:href="#mfed5297c0e" x="176.76" y="266.613971" style="fill: #0000ff; stroke: #0000ff"/>
     <use xlink:href="#mfed5297c0e" x="187.92" y="258.682489" style="fill: #0000ff; stroke: #0000ff"/>
     <use xlink:href="#mfed5297c0e" x="199.08" y="250.819687" style="fill: #0000ff; stroke: #0000ff"/>
     <use xlink:href="#mfed5297c0e" x="210.24" y="243.018464" style="fill: #0000ff; stroke: #0000ff"/>
     <use xlink:href="#mfed5297c0e" x="221.4" y="235.23779" style="fill: #0000ff; stroke: #0000ff"/>
     <use xlink:href="#mfed5297c0e" x="232.56" y="227.476242" style="fill: #0000ff; stroke: #0000ff"/>
     <use xlink:href="#mfed5297c0e" x="243.72" y="219.855742" style="fill: #0000ff; stroke: #0000ff"/>
     <use xlink:href="#mfed5297c0e" x="254.88" y="212.270131" style="fill: #0000ff; stroke: #0000ff"/>
     <use xlink:href="#mfed5297c0e" x="266.04" y="204.722208" style="fill: #0000ff; stroke: #0000ff"/>
     <use xlink:href="#mfed5297c0e" x="277.2" y="197.216838" style="fill: #0000ff; stroke: #0000ff"/>
     <use xlink:href="#mfed5297c0e" x="288.36" y="189.753789" style="fill: #0000ff; stroke: #0000ff"/>
     <use xlink:href="#mfed5297c0e" x="299.52" y="182.302246" style="fill: #0000ff; stroke: #0000ff"/>
     <use xlink:href="#mfed5297c0e" x="310.68" y="174.895632" style="fill: #0000ff; stroke: #0000ff"/>
     <use xlink:href="#mfed5297c0e" x="321.84" y="167.527358" style="fill: #0000ff; stroke: #0000ff"/>
     <use xlink:href="#mfed5297c0e" x="333" y="160.188957" style="fill: #0000ff; stroke: #0000ff"/>
     <use xlink:href="#mfed5297c0e" x="344.16" y="152.85527" style="fill: #0000ff; stroke: #0000ff"/>
     <use xlink:href="#mfed5297c0e" x="355.32" y="145.584382" style="fill: #0000ff; stroke: #0000ff"/>
     <use xlink:href="#mfed5297c0e" x="366.48" y="138.357714" style="fill: #0000ff; stroke: #0000ff"/>
     <use xlink:href="#mfed5297c0e" x="377.64" y="131.206513" style="fill: #0000ff; stroke: #0000ff"/>
     <use xlink:href="#mfed5297c0e" x="388.8" y="124.076533" style="fill: #0000ff; stroke: #0000ff"/>
     <use xlink:href="#mfed5297c0e" x="399.96" y="116.973422" style="fill: #0000ff; stroke: #0000ff"/>
    </g>
   </g>
   <g id="line2d_24">
    <path d="M 54 218.16 
L 388.8 218.16 
" clip-path="url(#pc6d35befc0)" style="fill: none; stroke-dasharray: 5.55,2.4; stroke-dashoffset: 0; stroke: #000000; stroke-width: 1.5"/>
   </g>
   <g id="line2d_25">
    <path d="M 254.88 384.48 
L 254.88 51.84 
" clip-path="url(#pc6d35befc0)" style="fill: none; stroke-dasharray: 5.55,2.4; stroke-dashoffset: 0; stroke: #0000ff; stroke-width: 1.5"/>
   </g>
   <g id="patch_3">
    <path d="M 54 384.48 
L 54 51.84 
" style="fill: none; stroke: #000000; stroke-width: 0.8; stroke-linejoin: miter; stroke-linecap: square"/>
   </g>
   <g id="patch_4">
    <path d="M 388.8 384.48 
L 388.8 51.84 
" style="fill: none; stroke: #000000; stroke-width: 0.8; stroke-linejoin: miter; stroke-linecap: square"/>
   </g>
   <g id="patch_5">
    <path d="M 54 384.48 
L 388.8 384.48 
" style="fill: none; stroke: #000000; stroke-width: 0.8; stroke-linejoin: miter; stroke-linecap: square"/>
   </g>
   <g id="patch_6">
    <path d="M 54 51.84 
L 388.8 51.84 
" style="fill: none; stroke: #000000; stroke-width: 0.8; stroke-linejoin: miter; stroke-linecap: square"/>
   </g>
   <g id="text_19">
    <!-- 273 -->
    <g style="fill: #ff0000" transform="translate(316.26 209.844) scale(0.12 -0.12)">
     <defs>
      <path id="DejaVuSans-Bold-32" d="M 1844 884 
L 3897 884 
L 3897 0 
L 506 0 
L 506 884 
L 2209 2388 
Q 2438 2594 2547 2791 
Q 2656 2988 2656 3200 
Q 2656 3528 2436 3728 
Q 2216 3928 1850 3928 
Q 1569 3928 1234 3808 
Q 900 3688 519 3450 
L 519 4475 
Q 925 4609 1322 4679 
Q 1719 4750 2100 4750 
Q 2938 4750 3402 4381 
Q 3866 4013 3866 3353 
Q 3866 2972 3669 2642 
Q 3472 2313 2841 1759 
L 1844 884 
z
" transform="scale(0.015625)"/>
      <path id="DejaVuSans-Bold-37" d="M 428 4666 
L 3944 4666 
L 3944 3988 
L 2125 0 
L 953 0 
L 2675 3781 
L 428 3781 
L 428 4666 
z
" transform="scale(0.015625)"/>
      <path id="DejaVuSans-Bold-33" d="M 2981 2516 
Q 3453 2394 3698 2092 
Q 3944 1791 3944 1325 
Q 3944 631 3412 270 
Q 2881 -91 1863 -91 
Q 1503 -91 1142 -33 
Q 781 25 428 141 
L 428 1069 
Q 766 900 1098 814 
Q 1431 728 1753 728 
Q 2231 728 2486 893 
Q 2741 1059 2741 1369 
Q 2741 1688 2480 1852 
Q 2219 2016 1709 2016 
L 1228 2016 
L 1228 2791 
L 1734 2791 
Q 2188 2791 2409 2933 
Q 2631 3075 2631 3366 
Q 2631 3634 2415 3781 
Q 2200 3928 1806 3928 
Q 1516 3928 1219 3862 
Q 922 3797 628 3669 
L 628 4550 
Q 984 4650 1334 4700 
Q 1684 4750 2022 4750 
Q 2931 4750 3382 4451 
Q 3834 4153 3834 3553 
Q 3834 3144 3618 2883 
Q 3403 2622 2981 2516 
z
" transform="scale(0.015625)"/>
     </defs>
     <use xlink:href="#DejaVuSans-Bold-32"/>
     <use xlink:href="#DejaVuSans-Bold-37" x="69.580078"/>
     <use xlink:href="#DejaVuSans-Bold-33" x="139.160156"/>
    </g>
   </g>
   <g id="text_20">
    <!-- 273 -->
    <g style="fill: #008000" transform="translate(316.26 226.476) scale(0.12 -0.12)">
     <use xlink:href="#DejaVuSans-Bold-32"/>
     <use xlink:href="#DejaVuSans-Bold-37" x="69.580078"/>
     <use xlink:href="#DejaVuSans-Bold-33" x="139.160156"/>
    </g>
   </g>
   <g id="text_21">
    <!-- 268 -->
    <g style="fill: #0000ff" transform="translate(260.46 209.844) scale(0.12 -0.12)">
     <defs>
      <path id="DejaVuSans-Bold-36" d="M 2316 2303 
Q 2000 2303 1842 2098 
Q 1684 1894 1684 1484 
Q 1684 1075 1842 870 
Q 2000 666 2316 666 
Q 2634 666 2792 870 
Q 2950 1075 2950 1484 
Q 2950 1894 2792 2098 
Q 2634 2303 2316 2303 
z
M 3803 4544 
L 3803 3681 
Q 3506 3822 3243 3889 
Q 2981 3956 2731 3956 
Q 2194 3956 1894 3657 
Q 1594 3359 1544 2772 
Q 1750 2925 1990 3001 
Q 2231 3078 2516 3078 
Q 3231 3078 3670 2659 
Q 4109 2241 4109 1563 
Q 4109 813 3618 361 
Q 3128 -91 2303 -91 
Q 1394 -91 895 523 
Q 397 1138 397 2266 
Q 397 3422 980 4083 
Q 1563 4744 2578 4744 
Q 2900 4744 3203 4694 
Q 3506 4644 3803 4544 
z
" transform="scale(0.015625)"/>
      <path id="DejaVuSans-Bold-38" d="M 2228 2088 
Q 1891 2088 1709 1903 
Q 1528 1719 1528 1375 
Q 1528 1031 1709 848 
Q 1891 666 2228 666 
Q 2563 666 2741 848 
Q 2919 1031 2919 1375 
Q 2919 1722 2741 1905 
Q 2563 2088 2228 2088 
z
M 1350 2484 
Q 925 2613 709 2878 
Q 494 3144 494 3541 
Q 494 4131 934 4440 
Q 1375 4750 2228 4750 
Q 3075 4750 3515 4442 
Q 3956 4134 3956 3541 
Q 3956 3144 3739 2878 
Q 3522 2613 3097 2484 
Q 3572 2353 3814 2058 
Q 4056 1763 4056 1313 
Q 4056 619 3595 264 
Q 3134 -91 2228 -91 
Q 1319 -91 855 264 
Q 391 619 391 1313 
Q 391 1763 633 2058 
Q 875 2353 1350 2484 
z
M 1631 3419 
Q 1631 3141 1786 2991 
Q 1941 2841 2228 2841 
Q 2509 2841 2662 2991 
Q 2816 3141 2816 3419 
Q 2816 3697 2662 3845 
Q 2509 3994 2228 3994 
Q 1941 3994 1786 3844 
Q 1631 3694 1631 3419 
z
" transform="scale(0.015625)"/>
     </defs>
     <use xlink:href="#DejaVuSans-Bold-32"/>
     <use xlink:href="#DejaVuSans-Bold-36" x="69.580078"/>
     <use xlink:href="#DejaVuSans-Bold-38" x="139.160156"/>
    </g>
   </g>
   <g id="text_22">
    <!-- CEV for each dataset -->
    <g transform="translate(158.189063 45.84) scale(0.12 -0.12)">
     <defs>
      <path id="DejaVuSans-66" d="M 2375 4863 
L 2375 4384 
L 1825 4384 
Q 1516 4384 1395 4259 
Q 1275 4134 1275 3809 
L 1275 3500 
L 2222 3500 
L 2222 3053 
L 1275 3053 
L 1275 0 
L 697 0 
L 697 3053 
L 147 3053 
L 147 3500 
L 697 3500 
L 697 3744 
Q 697 4328 969 4595 
Q 1241 4863 1831 4863 
L 2375 4863 
z
" transform="scale(0.015625)"/>
      <path id="DejaVuSans-72" d="M 2631 2963 
Q 2534 3019 2420 3045 
Q 2306 3072 2169 3072 
Q 1681 3072 1420 2755 
Q 1159 2438 1159 1844 
L 1159 0 
L 581 0 
L 581 3500 
L 1159 3500 
L 1159 2956 
Q 1341 3275 1631 3429 
Q 1922 3584 2338 3584 
Q 2397 3584 2469 3576 
Q 2541 3569 2628 3553 
L 2631 2963 
z
" transform="scale(0.015625)"/>
      <path id="DejaVuSans-61" d="M 2194 1759 
Q 1497 1759 1228 1600 
Q 959 1441 959 1056 
Q 959 750 1161 570 
Q 1363 391 1709 391 
Q 2188 391 2477 730 
Q 2766 1069 2766 1631 
L 2766 1759 
L 2194 1759 
z
M 3341 1997 
L 3341 0 
L 2766 0 
L 2766 531 
Q 2569 213 2275 61 
Q 1981 -91 1556 -91 
Q 1019 -91 701 211 
Q 384 513 384 1019 
Q 384 1609 779 1909 
Q 1175 2209 1959 2209 
L 2766 2209 
L 2766 2266 
Q 2766 2663 2505 2880 
Q 2244 3097 1772 3097 
Q 1472 3097 1187 3025 
Q 903 2953 641 2809 
L 641 3341 
Q 956 3463 1253 3523 
Q 1550 3584 1831 3584 
Q 2591 3584 2966 3190 
Q 3341 2797 3341 1997 
z
" transform="scale(0.015625)"/>
      <path id="DejaVuSans-68" d="M 3513 2113 
L 3513 0 
L 2938 0 
L 2938 2094 
Q 2938 2591 2744 2837 
Q 2550 3084 2163 3084 
Q 1697 3084 1428 2787 
Q 1159 2491 1159 1978 
L 1159 0 
L 581 0 
L 581 4863 
L 1159 4863 
L 1159 2956 
Q 1366 3272 1645 3428 
Q 1925 3584 2291 3584 
Q 2894 3584 3203 3211 
Q 3513 2838 3513 2113 
z
" transform="scale(0.015625)"/>
      <path id="DejaVuSans-64" d="M 2906 2969 
L 2906 4863 
L 3481 4863 
L 3481 0 
L 2906 0 
L 2906 525 
Q 2725 213 2448 61 
Q 2172 -91 1784 -91 
Q 1150 -91 751 415 
Q 353 922 353 1747 
Q 353 2572 751 3078 
Q 1150 3584 1784 3584 
Q 2172 3584 2448 3432 
Q 2725 3281 2906 2969 
z
M 947 1747 
Q 947 1113 1208 752 
Q 1469 391 1925 391 
Q 2381 391 2643 752 
Q 2906 1113 2906 1747 
Q 2906 2381 2643 2742 
Q 2381 3103 1925 3103 
Q 1469 3103 1208 2742 
Q 947 2381 947 1747 
z
" transform="scale(0.015625)"/>
     </defs>
     <use xlink:href="#DejaVuSans-43"/>
     <use xlink:href="#DejaVuSans-45" x="69.824219"/>
     <use xlink:href="#DejaVuSans-56" x="133.007812"/>
     <use xlink:href="#DejaVuSans-20" x="201.416016"/>
     <use xlink:href="#DejaVuSans-66" x="233.203125"/>
     <use xlink:href="#DejaVuSans-6f" x="268.408203"/>
     <use xlink:href="#DejaVuSans-72" x="329.589844"/>
     <use xlink:href="#DejaVuSans-20" x="370.703125"/>
     <use xlink:href="#DejaVuSans-65" x="402.490234"/>
     <use xlink:href="#DejaVuSans-61" x="464.013672"/>
     <use xlink:href="#DejaVuSans-63" x="525.292969"/>
     <use xlink:href="#DejaVuSans-68" x="580.273438"/>
     <use xlink:href="#DejaVuSans-20" x="643.652344"/>
     <use xlink:href="#DejaVuSans-64" x="675.439453"/>
     <use xlink:href="#DejaVuSans-61" x="738.916016"/>
     <use xlink:href="#DejaVuSans-74" x="800.195312"/>
     <use xlink:href="#DejaVuSans-61" x="839.404297"/>
     <use xlink:href="#DejaVuSans-73" x="900.683594"/>
     <use xlink:href="#DejaVuSans-65" x="952.783203"/>
     <use xlink:href="#DejaVuSans-74" x="1014.306641"/>
    </g>
   </g>
   <g id="legend_1">
    <g id="patch_7">
     <path d="M 61 103.874375 
L 137.448438 103.874375 
Q 139.448438 103.874375 139.448438 101.874375 
L 139.448438 58.84 
Q 139.448438 56.84 137.448438 56.84 
L 61 56.84 
Q 59 56.84 59 58.84 
L 59 101.874375 
Q 59 103.874375 61 103.874375 
z
" style="fill: #ffffff; opacity: 0.8; stroke: #cccccc; stroke-linejoin: miter"/>
    </g>
    <g id="line2d_26">
     <path d="M 63 64.938437 
L 73 64.938437 
L 83 64.938437 
" style="fill: none; stroke: #ff0000; stroke-width: 1.5; stroke-linecap: square"/>
     <g>
      <use xlink:href="#mfb8dd3f33d" x="73" y="64.938437" style="fill: #ff0000; stroke: #ff0000"/>
     </g>
    </g>
    <g id="text_23">
     <!-- BP (273) -->
     <g transform="translate(91 68.438437) scale(0.1 -0.1)">
      <defs>
       <path id="DejaVuSans-42" d="M 1259 2228 
L 1259 519 
L 2272 519 
Q 2781 519 3026 730 
Q 3272 941 3272 1375 
Q 3272 1813 3026 2020 
Q 2781 2228 2272 2228 
L 1259 2228 
z
M 1259 4147 
L 1259 2741 
L 2194 2741 
Q 2656 2741 2882 2914 
Q 3109 3088 3109 3444 
Q 3109 3797 2882 3972 
Q 2656 4147 2194 4147 
L 1259 4147 
z
M 628 4666 
L 2241 4666 
Q 2963 4666 3353 4366 
Q 3744 4066 3744 3513 
Q 3744 3084 3544 2831 
Q 3344 2578 2956 2516 
Q 3422 2416 3680 2098 
Q 3938 1781 3938 1306 
Q 3938 681 3513 340 
Q 3088 0 2303 0 
L 628 0 
L 628 4666 
z
" transform="scale(0.015625)"/>
       <path id="DejaVuSans-28" d="M 1984 4856 
Q 1566 4138 1362 3434 
Q 1159 2731 1159 2009 
Q 1159 1288 1364 580 
Q 1569 -128 1984 -844 
L 1484 -844 
Q 1016 -109 783 600 
Q 550 1309 550 2009 
Q 550 2706 781 3412 
Q 1013 4119 1484 4856 
L 1984 4856 
z
" transform="scale(0.015625)"/>
       <path id="DejaVuSans-33" d="M 2597 2516 
Q 3050 2419 3304 2112 
Q 3559 1806 3559 1356 
Q 3559 666 3084 287 
Q 2609 -91 1734 -91 
Q 1441 -91 1130 -33 
Q 819 25 488 141 
L 488 750 
Q 750 597 1062 519 
Q 1375 441 1716 441 
Q 2309 441 2620 675 
Q 2931 909 2931 1356 
Q 2931 1769 2642 2001 
Q 2353 2234 1838 2234 
L 1294 2234 
L 1294 2753 
L 1863 2753 
Q 2328 2753 2575 2939 
Q 2822 3125 2822 3475 
Q 2822 3834 2567 4026 
Q 2313 4219 1838 4219 
Q 1578 4219 1281 4162 
Q 984 4106 628 3988 
L 628 4550 
Q 988 4650 1302 4700 
Q 1616 4750 1894 4750 
Q 2613 4750 3031 4423 
Q 3450 4097 3450 3541 
Q 3450 3153 3228 2886 
Q 3006 2619 2597 2516 
z
" transform="scale(0.015625)"/>
       <path id="DejaVuSans-29" d="M 513 4856 
L 1013 4856 
Q 1481 4119 1714 3412 
Q 1947 2706 1947 2009 
Q 1947 1309 1714 600 
Q 1481 -109 1013 -844 
L 513 -844 
Q 928 -128 1133 580 
Q 1338 1288 1338 2009 
Q 1338 2731 1133 3434 
Q 928 4138 513 4856 
z
" transform="scale(0.015625)"/>
      </defs>
      <use xlink:href="#DejaVuSans-42"/>
      <use xlink:href="#DejaVuSans-50" x="68.603516"/>
      <use xlink:href="#DejaVuSans-20" x="128.90625"/>
      <use xlink:href="#DejaVuSans-28" x="160.693359"/>
      <use xlink:href="#DejaVuSans-32" x="199.707031"/>
      <use xlink:href="#DejaVuSans-37" x="263.330078"/>
      <use xlink:href="#DejaVuSans-33" x="326.953125"/>
      <use xlink:href="#DejaVuSans-29" x="390.576172"/>
     </g>
    </g>
    <g id="line2d_27">
     <path d="M 63 79.616562 
L 73 79.616562 
L 83 79.616562 
" style="fill: none; stroke: #008000; stroke-width: 1.5; stroke-linecap: square"/>
     <g>
      <use xlink:href="#mda6793c3dc" x="73" y="79.616562" style="fill: #008000; stroke: #008000"/>
     </g>
    </g>
    <g id="text_24">
     <!-- CC (273) -->
     <g transform="translate(91 83.116562) scale(0.1 -0.1)">
      <use xlink:href="#DejaVuSans-43"/>
      <use xlink:href="#DejaVuSans-43" x="69.824219"/>
      <use xlink:href="#DejaVuSans-20" x="139.648438"/>
      <use xlink:href="#DejaVuSans-28" x="171.435547"/>
      <use xlink:href="#DejaVuSans-32" x="210.449219"/>
      <use xlink:href="#DejaVuSans-37" x="274.072266"/>
      <use xlink:href="#DejaVuSans-33" x="337.695312"/>
      <use xlink:href="#DejaVuSans-29" x="401.318359"/>
     </g>
    </g>
    <g id="line2d_28">
     <path d="M 63 94.294687 
L 73 94.294687 
L 83 94.294687 
" style="fill: none; stroke: #0000ff; stroke-width: 1.5; stroke-linecap: square"/>
     <g>
      <use xlink:href="#mfed5297c0e" x="73" y="94.294687" style="fill: #0000ff; stroke: #0000ff"/>
     </g>
    </g>
    <g id="text_25">
     <!-- MF (268) -->
     <g transform="translate(91 97.794687) scale(0.1 -0.1)">
      <defs>
       <path id="DejaVuSans-4d" d="M 628 4666 
L 1569 4666 
L 2759 1491 
L 3956 4666 
L 4897 4666 
L 4897 0 
L 4281 0 
L 4281 4097 
L 3078 897 
L 2444 897 
L 1241 4097 
L 1241 0 
L 628 0 
L 628 4666 
z
" transform="scale(0.015625)"/>
       <path id="DejaVuSans-46" d="M 628 4666 
L 3309 4666 
L 3309 4134 
L 1259 4134 
L 1259 2759 
L 3109 2759 
L 3109 2228 
L 1259 2228 
L 1259 0 
L 628 0 
L 628 4666 
z
" transform="scale(0.015625)"/>
      </defs>
      <use xlink:href="#DejaVuSans-4d"/>
      <use xlink:href="#DejaVuSans-46" x="86.279297"/>
      <use xlink:href="#DejaVuSans-20" x="143.798828"/>
      <use xlink:href="#DejaVuSans-28" x="175.585938"/>
      <use xlink:href="#DejaVuSans-32" x="214.599609"/>
      <use xlink:href="#DejaVuSans-36" x="278.222656"/>
      <use xlink:href="#DejaVuSans-38" x="341.845703"/>
      <use xlink:href="#DejaVuSans-29" x="405.46875"/>
     </g>
    </g>
   </g>
  </g>
 </g>
 <defs>
  <clipPath id="pc6d35befc0">
   <rect x="54" y="51.84" width="334.8" height="332.64"/>
  </clipPath>
 </defs>
</svg>
